# xmcd
# 
# Track frame offsets:
#     150
#     38408
#     73349
#     99368
#     142587
# 
# Disc length: 2437
# 
# Revision: 0
# Processed by: cddbd v1.5.2PL0 Copyright (c) Steve Scherf et al.
# Submitted via: fre:ac v1.0.17
# 
DISCID=36098305
DTITLE=Hypnos 69 - Timeline Traveller
DYEAR=2002
DGENRE=Psychedelic Rock
TTITLE0=The Timeline Traveller
TTITLE1=N.O. Mustang
TTITLE2=Voodoo Dancer
TTITLE3=A Neverending Enigma
TTITLE4=Like Waves On The Wind
EXTD=
EXTT0=
EXTT1=
EXTT2=
EXTT3=
EXTT4=
PLAYORDER=
